<?xml version="1.0" encoding="utf-8"?>
<!-- Generator: Adobe Illustrator 27.2.0, SVG Export Plug-In . SVG Version: 6.00 Build 0)  -->
<svg version="1.1" id="Layer_1" xmlns="http://www.w3.org/2000/svg" xmlns:xlink="http://www.w3.org/1999/xlink" x="0px" y="0px"
	 viewBox="0 0 291.8 290.9" style="enable-background:new 0 0 291.8 290.9;" xml:space="preserve">
<g>
	<path d="M142.4,15.3c0.1,1.1-0.1,2-0.4,2.8c-0.4,0.8-0.9,1.4-1.5,2c-0.6,0.5-1.4,0.9-2.2,1.2c-0.8,0.3-1.7,0.4-2.5,0.5
		c-0.9,0.1-1.6,0-2.2-0.1c-0.6-0.1-1.2-0.2-1.7-0.4c-0.3-0.1-0.7-0.1-0.9-0.2c-0.3-0.1-0.6-0.1-0.8,0l-0.3-3.6l0.3,0
		c0.1,0.8,0.3,1.4,0.8,1.9c0.5,0.4,1,0.8,1.5,1c0.6,0.2,1.1,0.3,1.7,0.4c0.6,0,1,0,1.2,0c0.9-0.1,1.7-0.3,2.3-0.6
		c0.6-0.3,1.2-0.7,1.6-1.2c0.4-0.5,0.7-1,0.8-1.5c0.2-0.5,0.2-1.1,0.2-1.7c-0.1-0.7-0.2-1.3-0.6-1.7s-0.8-0.8-1.3-1.2
		c-0.5-0.3-1.1-0.6-1.7-0.8c-0.6-0.2-1.3-0.4-1.9-0.6c-0.7-0.2-1.5-0.5-2.2-0.7c-0.7-0.2-1.4-0.6-2-1c-0.6-0.4-1.1-0.9-1.5-1.5
		c-0.4-0.6-0.6-1.3-0.7-2.2c-0.1-0.9,0-1.8,0.4-2.5c0.3-0.7,0.8-1.3,1.3-1.8s1.2-0.9,2-1.2c0.8-0.3,1.5-0.5,2.4-0.5
		c0.6,0,1.1,0,1.6,0c0.5,0,1,0.1,1.4,0.2c0.4,0.1,0.7,0.1,1.1,0.1c0.3,0,0.7,0,1,0l0.2,3.3l-0.3,0c-0.1-1.1-0.6-1.8-1.5-2.1
		c-0.9-0.3-2-0.4-3.5-0.3c-0.9,0.1-1.5,0.3-2.1,0.6c-0.5,0.3-0.9,0.7-1.2,1.2c-0.3,0.4-0.5,0.9-0.6,1.4c-0.1,0.5-0.1,0.9-0.1,1.3
		c0,0.6,0.2,1.1,0.5,1.5c0.3,0.4,0.7,0.8,1.2,1c0.5,0.3,1,0.5,1.6,0.7s1.2,0.4,1.9,0.6c0.7,0.2,1.5,0.5,2.3,0.7
		c0.8,0.3,1.5,0.6,2.1,1c0.6,0.4,1.1,1,1.6,1.6S142.3,14.3,142.4,15.3z"/>
	<path d="M160.1,1.4c-1.6-0.1-3,0-4.2,0.5c-1.2,0.5-2.2,1.1-3.1,2c-0.8,0.8-1.5,1.8-1.9,2.9c-0.5,1.1-0.7,2.2-0.8,3.3
		c-0.1,1.3,0,2.5,0.4,3.7s1,2.4,1.8,3.4c0.8,1,1.7,1.8,2.8,2.5c1.1,0.7,2.3,1,3.7,1.1c0.4,0,0.8,0,1.4,0c0.5,0,1.1-0.2,1.6-0.4
		c0.5-0.2,1-0.5,1.5-0.9c0.5-0.4,0.9-1,1.1-1.7l0.3,0l-0.3,3.5c-0.3,0-0.7,0-1,0c-0.4,0.1-0.8,0.1-1.2,0.2c-0.6,0.1-1.2,0.2-1.9,0.3
		c-0.7,0.1-1.4,0.1-2.1,0c-1.9-0.1-3.5-0.6-4.8-1.3c-1.4-0.7-2.5-1.7-3.3-2.8c-0.9-1.1-1.5-2.3-1.8-3.6c-0.4-1.3-0.5-2.6-0.4-4
		c0.1-1.3,0.4-2.6,1-3.9c0.6-1.3,1.4-2.4,2.4-3.3c1-1,2.3-1.7,3.8-2.2c1.5-0.5,3.2-0.7,5.2-0.6c0.7,0.1,1.3,0.2,1.9,0.3
		c0.6,0.2,1,0.3,1.5,0.5c0.3,0.1,0.6,0.2,0.9,0.3c0.3,0.1,0.5,0.1,0.8,0.1L165,5.1l-0.3,0c-0.1-0.7-0.3-1.2-0.6-1.7
		c-0.3-0.5-0.7-0.8-1.1-1.1c-0.4-0.3-0.9-0.5-1.4-0.6C161.1,1.5,160.6,1.5,160.1,1.4z"/>
	<path d="M174.3,23.9l0.2,0l-0.1,0.3l-4.4-1.1l0.1-0.3l0.2,0c0.1,0,0.3,0,0.5-0.1s0.3-0.2,0.4-0.4c0.1-0.1,0.2-0.3,0.3-0.5
		c0.1-0.2,0.2-0.4,0.2-0.5l4.3-16.5c0-0.1,0.1-0.3,0.1-0.5c0-0.2,0-0.4-0.1-0.6c-0.1-0.2-0.1-0.4-0.2-0.5s-0.2-0.2-0.4-0.3l-0.2,0
		l0.1-0.3l5.4,1.4c2.1,0.5,3.6,1.3,4.5,2.4c0.9,1.1,1.2,2.4,0.8,4c-0.2,0.8-0.5,1.4-0.9,2c-0.4,0.5-0.9,0.9-1.4,1.3
		c-0.5,0.3-1.1,0.5-1.8,0.6c-0.7,0.1-1.3,0.1-2,0.1l1.4,4c0.3,1,0.7,1.9,1,2.9s0.7,1.9,1,2.9c0.1,0.2,0.2,0.5,0.3,0.8
		c0.1,0.3,0.2,0.5,0.4,0.8c0.1,0.2,0.3,0.4,0.5,0.6c0.2,0.2,0.4,0.3,0.6,0.3l-0.1,0.3l-1.3-0.3c-0.8-0.2-1.5-0.6-1.9-1.1
		c-0.4-0.5-0.7-1.1-1-1.7c-0.6-1.6-1.1-3.2-1.7-4.9c-0.6-1.6-1.1-3.3-1.7-4.9c-0.2-0.1-0.5-0.2-0.7-0.3c-0.2-0.1-0.5-0.2-0.7-0.3
		l-2.2,8.5c0,0.2-0.1,0.4-0.1,0.6c0,0.2,0,0.4,0.1,0.6c0,0.2,0.1,0.4,0.2,0.5C174,23.8,174.2,23.9,174.3,23.9z M178.2,4.6l-2,7.9
		l0.2,0c0.2,0.1,0.4,0.1,0.8,0.2c0.4,0.1,0.8,0.2,1.3,0.4c0.4,0.1,0.9,0.2,1.4,0.2c0.5,0,1-0.1,1.5-0.3s1-0.5,1.4-1
		c0.4-0.4,0.7-1.1,0.9-1.8c0.2-0.8,0.2-1.5,0-2c-0.2-0.6-0.5-1.1-0.9-1.5c-0.5-0.4-1-0.8-1.8-1.1c-0.7-0.3-1.5-0.6-2.4-0.8
		L178.2,4.6z"/>
	<path d="M208.4,13.7c1.5,0.7,2.7,1.6,3.7,2.7c0.9,1.1,1.6,2.3,2,3.6c0.4,1.3,0.6,2.6,0.5,4s-0.5,2.7-1.1,4
		c-0.7,1.4-1.6,2.6-2.7,3.6c-1.1,1-2.3,1.7-3.7,2.1s-2.7,0.6-4.2,0.5s-2.9-0.5-4.3-1.1c-1.5-0.7-2.7-1.6-3.6-2.7
		c-0.9-1.1-1.6-2.3-2-3.6c-0.4-1.3-0.5-2.6-0.4-4s0.5-2.7,1-3.9c0.6-1.2,1.4-2.3,2.4-3.3s2.2-1.8,3.5-2.3s2.7-0.8,4.2-0.8
		S206.8,12.9,208.4,13.7z M199.5,32.3c1.3,0.6,2.6,0.8,3.8,0.7s2.4-0.4,3.4-0.9c1-0.5,2-1.2,2.7-2c0.8-0.8,1.4-1.7,1.9-2.7
		c0.5-1.1,0.8-2.2,0.9-3.5c0.1-1.3,0-2.5-0.3-3.7c-0.3-1.2-0.8-2.3-1.5-3.4c-0.7-1-1.7-1.8-3-2.4c-1.2-0.6-2.4-0.8-3.6-0.7
		c-1.2,0.1-2.3,0.4-3.4,0.9c-1.1,0.5-2,1.2-2.8,2.1s-1.5,1.8-1.9,2.8c-0.5,1.1-0.8,2.2-0.9,3.5c-0.1,1.3,0,2.5,0.3,3.7
		s0.8,2.3,1.5,3.3C197.4,31,198.4,31.7,199.5,32.3z"/>
	<path d="M213.8,40.7l0.1,0.1c0.1,0.1,0.3,0.1,0.5,0.1c0.2,0,0.3-0.1,0.5-0.2c0.2-0.1,0.3-0.2,0.5-0.3c0.2-0.1,0.3-0.3,0.4-0.4
		l10-13.9c0.1-0.1,0.2-0.3,0.2-0.5c0.1-0.2,0.1-0.4,0.1-0.6c0-0.2,0-0.4,0-0.5c0-0.2-0.1-0.3-0.3-0.4l-0.1-0.1l0.2-0.3l3.7,2.7
		l-0.2,0.3l-0.1-0.1c-0.1-0.1-0.3-0.1-0.5-0.1c-0.2,0-0.3,0.1-0.5,0.2c-0.2,0.1-0.3,0.2-0.5,0.3c-0.2,0.1-0.3,0.2-0.4,0.4
		l-10.5,14.6l5.7,4.1c0.3,0.2,0.7,0.4,1,0.4c0.4,0,0.7,0,1-0.1c0.3-0.1,0.6-0.3,0.9-0.5s0.5-0.4,0.6-0.7l0.3,0.2l-2.4,3.3l-10.7-7.7
		L213.8,40.7z"/>
	<path d="M228.2,51.5l0.1,0.1c0.1,0.1,0.3,0.2,0.4,0.2c0.2,0,0.4,0,0.5-0.1s0.4-0.1,0.5-0.2c0.2-0.1,0.3-0.2,0.4-0.3l11.9-12.3
		c0.1-0.1,0.2-0.2,0.3-0.4c0.1-0.2,0.2-0.4,0.2-0.5c0-0.2,0.1-0.4,0.1-0.5c0-0.2-0.1-0.3-0.2-0.4l-0.1-0.1l0.2-0.2l3.3,3.2l-0.2,0.2
		l-0.1-0.1c-0.1-0.1-0.3-0.2-0.4-0.2c-0.2,0-0.4,0-0.5,0.1c-0.2,0.1-0.4,0.1-0.5,0.2c-0.2,0.1-0.3,0.2-0.4,0.3l-12.5,12.9l5,4.9
		c0.3,0.3,0.6,0.5,1,0.5c0.3,0.1,0.7,0.1,1,0c0.3-0.1,0.7-0.2,1-0.4s0.5-0.4,0.7-0.6l0.2,0.2l-2.8,2.9l-9.4-9.1L228.2,51.5z"/>
	<path d="M248.1,73.4l0.1,0.1c0.1,0.1,0.2,0.2,0.4,0.3c0.2,0,0.4,0.1,0.6,0.1c0.2,0,0.4,0,0.6-0.1s0.4-0.1,0.5-0.2l14.6-8.9
		c0.1-0.1,0.3-0.2,0.4-0.3s0.3-0.3,0.4-0.4c0.1-0.2,0.2-0.3,0.2-0.5s0-0.3-0.1-0.5l-0.1-0.1l0.3-0.2l3.2,5.3
		c0.9,1.4,1.4,2.9,1.6,4.3c0.2,1.5,0.1,2.8-0.2,4.1c-0.4,1.3-1,2.5-1.8,3.6c-0.8,1.1-1.8,2-3,2.7c-1.1,0.7-2.3,1.1-3.6,1.4
		c-1.3,0.3-2.6,0.2-4-0.1c-1.3-0.3-2.6-0.9-3.9-1.8c-1.3-0.9-2.4-2.1-3.3-3.7l-3-4.9L248.1,73.4z M264,81c1.2-0.7,2.1-1.6,2.9-2.6
		c0.8-1.1,1.3-2.2,1.6-3.4c0.3-1.2,0.4-2.5,0.2-3.8c-0.2-1.3-0.6-2.6-1.4-3.8l-0.9-1.4l-16.1,9.8l0.9,1.5c0.6,1,1.4,1.9,2.3,2.7
		c0.9,0.8,1.9,1.4,3,1.8c1.1,0.4,2.3,0.6,3.6,0.5C261.5,82.2,262.8,81.8,264,81z"/>
	<path d="M282.8,94.9c0.6,1.6,0.8,3.1,0.7,4.5c-0.1,1.4-0.4,2.8-1,4c-0.6,1.2-1.4,2.3-2.5,3.2s-2.3,1.6-3.6,2.1
		c-1.5,0.6-3,0.8-4.4,0.7c-1.5-0.1-2.8-0.4-4.1-1.1c-1.3-0.6-2.4-1.5-3.4-2.6c-1-1.1-1.7-2.3-2.3-3.8c-0.6-1.5-0.8-3-0.7-4.5
		c0.1-1.4,0.5-2.8,1.1-3.9c0.6-1.2,1.4-2.2,2.5-3.1s2.2-1.6,3.5-2.1c1.3-0.5,2.6-0.7,4.1-0.7c1.4,0,2.8,0.3,4.1,0.8
		c1.3,0.5,2.5,1.3,3.6,2.4C281.3,91.9,282.2,93.3,282.8,94.9z M263.4,102.1c0.6,1.3,1.3,2.4,2.2,3.2c0.9,0.8,1.9,1.4,3,1.8
		c1.1,0.4,2.2,0.5,3.4,0.5s2.2-0.3,3.2-0.6c1.1-0.4,2.1-1,3.1-1.8s1.8-1.8,2.4-2.8c0.6-1.1,1-2.2,1.2-3.5c0.2-1.2,0-2.5-0.4-3.8
		c-0.5-1.2-1.1-2.3-2.1-3s-1.9-1.4-3-1.7c-1.1-0.4-2.3-0.5-3.5-0.5c-1.2,0-2.3,0.2-3.3,0.6c-1.1,0.4-2.1,1-3.1,1.9
		c-1,0.8-1.7,1.8-2.4,2.9s-1,2.2-1.2,3.4C262.9,99.6,263,100.9,263.4,102.1z"/>
	<path d="M291.4,135.6c-0.1-0.4-0.3-0.8-0.7-1c-0.4-0.2-0.8-0.4-1.3-0.4l-19.9-2.8l14.8-7.3l-16.4-2.5l18.1-8.7
		c0.4-0.2,0.7-0.4,1.1-0.7c0.3-0.3,0.5-0.7,0.4-1l0.3,0l0.7,4.5l-0.3,0c0-0.3-0.2-0.5-0.4-0.6c-0.2-0.1-0.5-0.2-0.9-0.1
		c-0.1,0-0.2,0.1-0.4,0.1l-12.8,6.2l16.3,2.6l-14.7,7.2l14,2.1c0,0,0.1,0,0.3,0c0.1,0,0.3,0,0.3,0c0.3,0,0.5-0.2,0.7-0.4
		c0.2-0.2,0.2-0.4,0.2-0.5l0.3,0l0.5,3.4L291.4,135.6z"/>
	<path d="M270.8,146.9l0,0.2l-0.3,0l0.2-3.5l0.3,0l0,0.2c0,0.1,0,0.3,0.2,0.4c0.1,0.1,0.3,0.3,0.4,0.4c0.2,0.1,0.3,0.2,0.5,0.2
		c0.2,0.1,0.4,0.1,0.6,0.1l17,0.9c0.1,0,0.3,0,0.5,0c0.2,0,0.4-0.1,0.6-0.1c0.2-0.1,0.3-0.2,0.5-0.3c0.1-0.1,0.2-0.3,0.2-0.5l0-0.2
		l0.3,0l-0.2,3.2l-18.9,10.7l16.3,0.8c0.1,0,0.3,0,0.5-0.1c0.2,0,0.4-0.1,0.6-0.2c0.2-0.1,0.3-0.2,0.4-0.3c0.1-0.1,0.2-0.3,0.2-0.4
		l0-0.2l0.3,0l-0.2,3.6l-0.3,0l0-0.2c0-0.2,0-0.3-0.2-0.5c-0.1-0.1-0.2-0.3-0.4-0.4s-0.3-0.2-0.5-0.2s-0.4-0.1-0.5-0.1l-19.1-1
		l0.1-2l18.9-10.6l-16.3-0.8c-0.2,0-0.4,0-0.6,0c-0.2,0-0.4,0.1-0.6,0.2c-0.2,0.1-0.3,0.2-0.5,0.3
		C270.9,146.6,270.8,146.7,270.8,146.9z"/>
	<path d="M262.9,203.1c-1-0.4-1.7-1-2.3-1.7s-0.9-1.4-1-2.2c-0.2-0.8-0.2-1.6,0-2.5s0.4-1.7,0.7-2.4c0.3-0.8,0.7-1.4,1.1-1.9
		c0.4-0.5,0.8-1,1.1-1.4c0.2-0.3,0.4-0.5,0.6-0.7c0.2-0.2,0.3-0.5,0.4-0.7l3.4,1.4l-0.1,0.3c-0.7-0.3-1.4-0.4-2-0.2
		s-1.1,0.5-1.6,0.9c-0.5,0.4-0.8,0.9-1.1,1.3c-0.3,0.5-0.5,0.8-0.6,1.1c-0.4,0.8-0.6,1.6-0.6,2.3s0.1,1.4,0.3,1.9
		c0.2,0.6,0.6,1,1,1.4s0.9,0.7,1.4,0.9c0.6,0.3,1.2,0.4,1.8,0.3c0.6-0.1,1.1-0.3,1.6-0.6c0.5-0.3,1-0.7,1.5-1.1
		c0.5-0.5,1-0.9,1.5-1.4c0.5-0.6,1.1-1.1,1.6-1.6c0.6-0.5,1.1-1,1.8-1.3c0.6-0.3,1.3-0.5,2-0.6c0.7-0.1,1.5,0.1,2.3,0.4
		c0.9,0.4,1.5,0.9,2,1.5c0.5,0.6,0.8,1.3,1,2c0.2,0.7,0.2,1.5,0.1,2.3c-0.1,0.8-0.3,1.6-0.6,2.3c-0.2,0.5-0.5,1-0.7,1.4
		c-0.3,0.4-0.5,0.8-0.8,1.2c-0.2,0.3-0.4,0.6-0.6,0.9c-0.2,0.3-0.3,0.6-0.5,0.9l-3-1.3l0.1-0.3c1,0.4,1.9,0.3,2.6-0.3
		c0.7-0.6,1.3-1.6,1.9-3c0.3-0.8,0.5-1.5,0.4-2.1c0-0.6-0.2-1.2-0.5-1.6c-0.3-0.5-0.6-0.8-1-1.1c-0.4-0.3-0.8-0.5-1.1-0.7
		c-0.5-0.2-1.1-0.3-1.6-0.2s-1,0.3-1.5,0.5c-0.5,0.3-0.9,0.6-1.4,1.1s-0.9,0.9-1.4,1.4c-0.5,0.6-1.1,1.1-1.7,1.7
		c-0.6,0.6-1.2,1-1.9,1.4c-0.7,0.4-1.4,0.6-2.2,0.6C264.7,203.7,263.8,203.5,262.9,203.1z"/>
	<path d="M266.9,225.3c0.8-1.3,1.3-2.6,1.5-3.9c0.1-1.3,0-2.5-0.3-3.6c-0.4-1.1-0.9-2.2-1.7-3.1c-0.8-0.9-1.6-1.7-2.5-2.3
		c-1.1-0.7-2.2-1.1-3.5-1.4c-1.3-0.2-2.5-0.2-3.8,0s-2.4,0.7-3.5,1.4c-1.1,0.7-2,1.6-2.7,2.7c-0.2,0.3-0.4,0.7-0.6,1.2
		c-0.2,0.5-0.3,1-0.4,1.6c-0.1,0.6,0,1.2,0.1,1.8c0.1,0.6,0.5,1.2,0.9,1.8l-0.2,0.3l-3-1.9c0.2-0.3,0.3-0.6,0.4-0.9
		c0.1-0.3,0.2-0.7,0.4-1.1c0.2-0.5,0.4-1.1,0.6-1.8c0.3-0.6,0.6-1.3,1-1.9c1-1.6,2.1-2.8,3.4-3.6s2.6-1.4,4-1.6s2.7-0.2,4.1,0.1
		s2.6,0.8,3.7,1.5c1.1,0.7,2.1,1.6,3,2.7c0.9,1.1,1.5,2.3,1.8,3.7c0.4,1.4,0.4,2.8,0.2,4.4s-0.9,3.2-1.9,4.8
		c-0.4,0.6-0.8,1.1-1.2,1.5c-0.4,0.4-0.8,0.8-1.1,1.1c-0.3,0.2-0.5,0.4-0.7,0.6c-0.2,0.2-0.3,0.4-0.5,0.6l-3-1.9l0.2-0.3
		c0.6,0.2,1.2,0.3,1.8,0.3c0.6-0.1,1-0.2,1.5-0.5c0.4-0.3,0.8-0.6,1.2-1S266.7,225.7,266.9,225.3z"/>
	<path d="M240.4,227.4l-0.1,0.1l-0.2-0.2l3-3.3l0.2,0.2l-0.1,0.1c-0.1,0.1-0.1,0.3-0.1,0.4s0,0.4,0.1,0.5s0.2,0.4,0.3,0.5
		c0.1,0.2,0.2,0.3,0.4,0.4l12.6,11.4c0.1,0.1,0.3,0.2,0.4,0.3c0.2,0.1,0.4,0.2,0.5,0.2c0.2,0,0.4,0.1,0.5,0c0.2,0,0.3-0.1,0.4-0.2
		l0.1-0.1l0.2,0.2l-3.7,4.1c-1.4,1.6-2.8,2.5-4.2,2.8c-1.4,0.3-2.7-0.1-3.9-1.2c-0.6-0.5-1-1.1-1.3-1.7c-0.3-0.6-0.4-1.2-0.4-1.8
		c0-0.6,0.1-1.3,0.3-1.9c0.2-0.6,0.5-1.2,0.9-1.8l-4.2-0.7c-1-0.2-2-0.3-3-0.4c-1-0.1-2-0.3-3-0.5c-0.3,0-0.5-0.1-0.8-0.1
		c-0.3,0-0.6,0-0.9,0c-0.3,0-0.5,0.1-0.8,0.2c-0.2,0.1-0.4,0.2-0.6,0.4l-0.2-0.2l0.9-1c0.6-0.6,1.2-1,1.9-1.1s1.3-0.1,2,0
		c1.7,0.2,3.4,0.5,5.1,0.8c1.7,0.3,3.4,0.5,5.1,0.8c0.2-0.2,0.4-0.3,0.6-0.5c0.2-0.2,0.4-0.3,0.6-0.5l-6.5-5.9
		c-0.1-0.1-0.3-0.2-0.5-0.3c-0.2-0.1-0.4-0.2-0.6-0.2c-0.2,0-0.4-0.1-0.5-0.1S240.5,227.2,240.4,227.4z M255.6,239.8l-6-5.5
		l-0.1,0.1c-0.1,0.1-0.3,0.3-0.6,0.6c-0.3,0.3-0.6,0.6-0.9,1c-0.3,0.3-0.6,0.7-0.8,1.2c-0.2,0.5-0.4,1-0.4,1.5c0,0.5,0,1.1,0.2,1.7
		c0.2,0.6,0.6,1.1,1.2,1.7c0.6,0.5,1.2,0.9,1.8,1c0.6,0.1,1.2,0.1,1.8-0.1c0.6-0.2,1.2-0.6,1.8-1.1c0.6-0.5,1.2-1.1,1.8-1.8
		L255.6,239.8z"/>
	<path d="M233.6,262.3c-1.3,1-2.7,1.7-4.1,2s-2.8,0.4-4.1,0.1c-1.3-0.2-2.6-0.7-3.8-1.5c-1.2-0.7-2.2-1.7-3.1-2.8
		c-1-1.3-1.6-2.6-2-4.1c-0.3-1.4-0.4-2.8-0.2-4.2c0.2-1.4,0.7-2.7,1.5-3.9s1.7-2.3,3-3.3c1.3-1,2.7-1.6,4.1-2
		c1.4-0.3,2.8-0.4,4.1-0.1c1.3,0.2,2.6,0.7,3.7,1.4c1.2,0.7,2.2,1.6,3,2.8c0.8,1.1,1.4,2.3,1.8,3.7c0.4,1.4,0.6,2.7,0.4,4.1
		c-0.1,1.4-0.5,2.8-1.2,4.1C236.1,260.1,235,261.3,233.6,262.3z M221.2,245.8c-1.1,0.9-1.9,1.9-2.4,3c-0.5,1.1-0.8,2.3-0.8,3.4
		c0,1.2,0.1,2.3,0.5,3.4c0.4,1.1,0.9,2,1.5,2.9c0.7,0.9,1.6,1.8,2.7,2.5c1.1,0.7,2.2,1.2,3.4,1.5s2.4,0.4,3.7,0.2
		c1.2-0.2,2.4-0.7,3.5-1.5c1.1-0.8,1.8-1.7,2.3-2.8c0.5-1.1,0.7-2.2,0.8-3.4c0-1.2-0.1-2.3-0.5-3.5c-0.4-1.1-0.9-2.1-1.5-3
		c-0.7-0.9-1.6-1.7-2.7-2.4c-1.1-0.7-2.2-1.2-3.4-1.4c-1.2-0.3-2.4-0.3-3.6-0.2C223.4,244.6,222.3,245.1,221.2,245.8z"/>
	<path d="M207.2,254.6l-0.1,0.1c-0.2,0.1-0.3,0.2-0.3,0.4c-0.1,0.2-0.1,0.3-0.1,0.5c0,0.2,0,0.4,0,0.6c0,0.2,0.1,0.4,0.2,0.5
		l7.7,15.3c0.1,0.1,0.2,0.3,0.3,0.4c0.1,0.1,0.3,0.3,0.4,0.4c0.2,0.1,0.3,0.2,0.5,0.2c0.2,0,0.3,0,0.5,0l0.1-0.1l0.1,0.3l-4.1,2.1
		l-0.1-0.3l0.1-0.1c0.2-0.1,0.3-0.2,0.3-0.4s0.1-0.3,0.1-0.5c0-0.2,0-0.4-0.1-0.6c0-0.2-0.1-0.4-0.2-0.5l-8.1-16l-6.3,3.1
		c-0.4,0.2-0.6,0.4-0.8,0.7c-0.2,0.3-0.3,0.6-0.3,1s0,0.7,0,1c0.1,0.3,0.2,0.6,0.3,0.9l-0.3,0.1l-1.8-3.6l11.7-5.9L207.2,254.6z"/>
	<path d="M191,262.3l-0.2,0.1c-0.2,0.1-0.3,0.2-0.4,0.3c-0.1,0.2-0.1,0.3-0.2,0.5s0,0.4,0,0.6s0,0.4,0.1,0.5l5.4,16.2
		c0,0.1,0.1,0.3,0.2,0.5s0.2,0.3,0.4,0.4c0.1,0.1,0.3,0.2,0.5,0.3c0.2,0.1,0.3,0.1,0.5,0l0.2-0.1l0.1,0.3l-4.4,1.5l-0.1-0.3l0.2,0
		c0.2-0.1,0.3-0.2,0.4-0.3c0.1-0.2,0.1-0.3,0.2-0.5c0-0.2,0-0.4,0-0.6c0-0.2,0-0.4-0.1-0.5l-5.7-17l-6.7,2.2
		c-0.4,0.1-0.7,0.3-0.9,0.6c-0.2,0.3-0.4,0.6-0.5,0.9c-0.1,0.3-0.1,0.7-0.1,1c0,0.3,0.1,0.6,0.2,0.9l-0.3,0.1l-1.3-3.8l12.4-4.1
		L191,262.3z"/>
	<path d="M162.4,269.8l-0.2,0c-0.1,0-0.3,0.1-0.4,0.2c-0.1,0.1-0.2,0.3-0.3,0.5c-0.1,0.2-0.1,0.4-0.2,0.6c0,0.2,0,0.4,0,0.6l1.1,17
		c0,0.1,0,0.3,0.1,0.5c0.1,0.2,0.1,0.4,0.2,0.5c0.1,0.2,0.2,0.3,0.3,0.4c0.1,0.1,0.3,0.2,0.5,0.1l0.2,0l0,0.3l-6.2,0.4
		c-1.7,0.1-3.2-0.1-4.6-0.6c-1.4-0.5-2.6-1.2-3.6-2.1c-1-0.9-1.8-2-2.3-3.3c-0.6-1.2-0.9-2.6-1-3.9c-0.1-1.3,0.1-2.6,0.5-3.9
		c0.4-1.3,1-2.4,1.9-3.5c0.9-1,2-1.9,3.4-2.6s3-1.1,4.8-1.2l5.7-0.4L162.4,269.8z M148.2,280.4c0.1,1.4,0.4,2.6,1,3.8
		c0.6,1.2,1.3,2.2,2.3,3c0.9,0.8,2,1.5,3.3,2c1.2,0.5,2.6,0.6,4,0.5l1.6-0.1l-1.2-18.8l-1.7,0.1c-1.2,0.1-2.3,0.3-3.4,0.8
		c-1.1,0.4-2.2,1-3,1.8s-1.6,1.8-2.1,2.9S148.1,278.8,148.2,280.4z"/>
	<path d="M127.2,290.5c-1.7-0.2-3.1-0.7-4.3-1.4c-1.2-0.7-2.3-1.7-3.1-2.8s-1.4-2.3-1.7-3.7c-0.3-1.4-0.4-2.8-0.2-4.2
		c0.2-1.6,0.7-3,1.4-4.3c0.8-1.3,1.7-2.3,2.8-3.1c1.1-0.8,2.4-1.4,3.8-1.8c1.4-0.4,2.9-0.5,4.4-0.3c1.6,0.2,3.1,0.7,4.3,1.4
		s2.2,1.7,3,2.8c0.8,1.1,1.3,2.3,1.7,3.6c0.3,1.3,0.4,2.7,0.2,4.1c-0.2,1.4-0.6,2.7-1.2,3.9c-0.7,1.3-1.5,2.3-2.6,3.3
		c-1.1,0.9-2.3,1.6-3.8,2.1C130.5,290.6,128.9,290.7,127.2,290.5z M129.8,270c-1.4-0.1-2.7,0-3.9,0.5s-2.1,1.1-3,1.9
		c-0.8,0.8-1.5,1.7-2,2.8c-0.5,1-0.8,2.1-0.9,3.1c-0.1,1.2-0.1,2.4,0.2,3.6s0.7,2.4,1.4,3.5c0.7,1.1,1.5,2,2.5,2.7
		c1,0.7,2.2,1.2,3.6,1.4c1.3,0.2,2.5,0,3.6-0.4s2.1-1.1,2.9-1.9c0.8-0.8,1.5-1.8,2.1-2.8s0.9-2.1,1-3.2c0.1-1.2,0.1-2.4-0.2-3.6
		c-0.3-1.2-0.8-2.4-1.4-3.4c-0.7-1.1-1.5-1.9-2.5-2.7S131.1,270.2,129.8,270z"/>
	<path d="M87.1,279.3c0.4,0.1,0.8,0.1,1.2-0.2c0.4-0.2,0.7-0.6,1-0.9l11.7-16.3l-0.4,16.5l9.8-13.3l-0.7,20.1c0,0.4,0,0.9,0.1,1.3
		c0.1,0.4,0.4,0.7,0.7,0.8l-0.1,0.3l-4.3-1.5l0.1-0.3c0.3,0.1,0.5,0.1,0.8-0.1c0.2-0.2,0.4-0.4,0.5-0.7c0-0.1,0.1-0.2,0.1-0.4
		l0.4-14.2l-9.9,13.2l0.4-16.4l-8.4,11.5c0,0-0.1,0.1-0.1,0.2c-0.1,0.1-0.1,0.2-0.2,0.3c-0.1,0.3-0.1,0.5,0,0.8
		c0.1,0.2,0.2,0.4,0.4,0.4l-0.1,0.3l-3.3-1.1L87.1,279.3z"/>
	<path d="M86.7,255.8l-0.1-0.1l0.2-0.3l3.1,1.8l-0.2,0.3l-0.1-0.1c-0.1-0.1-0.3-0.1-0.5-0.1c-0.2,0-0.4,0.1-0.5,0.2
		c-0.2,0.1-0.3,0.2-0.5,0.4c-0.1,0.1-0.3,0.3-0.4,0.4l-8.7,14.7c-0.1,0.1-0.1,0.3-0.2,0.5s-0.1,0.4-0.1,0.6c0,0.2,0,0.4,0.1,0.6
		c0.1,0.2,0.2,0.3,0.4,0.4l0.1,0.1l-0.2,0.3l-2.8-1.6l-0.7-21.7l-8.3,14c-0.1,0.1-0.1,0.3-0.2,0.5c-0.1,0.2-0.1,0.4-0.1,0.6
		c0,0.2,0,0.4,0.1,0.5s0.1,0.3,0.3,0.4l0.1,0.1l-0.2,0.3l-3.1-1.8l0.2-0.3l0.1,0.1c0.1,0.1,0.3,0.1,0.5,0.1c0.2,0,0.3-0.1,0.5-0.2
		c0.2-0.1,0.3-0.2,0.5-0.4c0.1-0.1,0.2-0.3,0.3-0.4l9.8-16.5l1.7,1l0.6,21.7l8.3-14c0.1-0.1,0.2-0.3,0.2-0.5
		c0.1-0.2,0.1-0.4,0.1-0.6c0-0.2,0-0.4-0.1-0.6C86.9,256.1,86.8,255.9,86.7,255.8z"/>
	<path d="M40.5,222.7c0.8-0.7,1.7-1.1,2.5-1.2c0.9-0.1,1.7-0.1,2.5,0.1c0.8,0.2,1.5,0.6,2.2,1.1s1.3,1.1,1.8,1.8
		c0.5,0.7,0.9,1.3,1.2,1.9s0.5,1.1,0.7,1.6c0.1,0.3,0.3,0.6,0.4,0.9c0.1,0.3,0.3,0.5,0.4,0.7l-2.8,2.3l-0.2-0.2
		c0.6-0.5,1-1.1,1.1-1.7c0.1-0.6,0.1-1.2-0.1-1.8c-0.2-0.6-0.4-1.1-0.7-1.6c-0.3-0.5-0.5-0.8-0.7-1c-0.6-0.7-1.2-1.2-1.8-1.6
		c-0.6-0.3-1.2-0.5-1.9-0.6c-0.6-0.1-1.2,0-1.7,0.2c-0.5,0.2-1,0.4-1.5,0.8c-0.5,0.4-0.9,0.9-1.1,1.5c-0.2,0.5-0.3,1.1-0.2,1.7
		c0,0.6,0.1,1.2,0.3,1.9c0.2,0.6,0.4,1.3,0.6,1.9c0.2,0.7,0.5,1.5,0.7,2.2c0.2,0.7,0.3,1.5,0.3,2.2s-0.1,1.4-0.4,2s-0.7,1.3-1.4,1.8
		c-0.7,0.6-1.5,1-2.2,1.1c-0.8,0.2-1.5,0.1-2.2,0c-0.7-0.2-1.4-0.5-2.1-1s-1.3-1-1.8-1.6c-0.4-0.4-0.7-0.9-0.9-1.3
		c-0.3-0.4-0.5-0.8-0.7-1.3c-0.2-0.3-0.3-0.7-0.5-1c-0.2-0.3-0.4-0.6-0.6-0.8l2.6-2.1l0.2,0.2c-0.8,0.7-1.1,1.5-0.9,2.4
		c0.2,0.9,0.8,1.9,1.7,3.1c0.5,0.7,1.1,1.1,1.7,1.4s1.1,0.4,1.6,0.3c0.5,0,1-0.1,1.5-0.3c0.4-0.2,0.8-0.4,1.1-0.7
		c0.5-0.4,0.8-0.8,0.9-1.3c0.2-0.5,0.2-1,0.2-1.5s-0.1-1.1-0.3-1.8c-0.2-0.6-0.4-1.2-0.6-1.9c-0.2-0.7-0.5-1.5-0.7-2.3
		c-0.2-0.8-0.3-1.6-0.3-2.3c0-0.8,0.1-1.5,0.4-2.2C39.3,224,39.8,223.3,40.5,222.7z"/>
	<path d="M19.1,216c0.8,1.4,1.7,2.4,2.8,3.1c1.1,0.7,2.2,1.2,3.4,1.4c1.2,0.2,2.3,0.2,3.5-0.1c1.2-0.2,2.2-0.6,3.2-1.2
		c1.1-0.6,2-1.5,2.8-2.5c0.8-1,1.4-2.2,1.7-3.4s0.5-2.5,0.4-3.7c-0.1-1.3-0.5-2.5-1.1-3.7c-0.2-0.3-0.5-0.7-0.8-1.1
		c-0.3-0.4-0.7-0.8-1.2-1.1s-1-0.6-1.6-0.7c-0.6-0.2-1.3-0.1-2,0l-0.2-0.3L33,201c0.2,0.3,0.4,0.5,0.6,0.8c0.3,0.3,0.5,0.5,0.8,0.9
		c0.4,0.4,0.8,0.9,1.3,1.4s0.9,1.1,1.2,1.7c0.9,1.6,1.5,3.2,1.6,4.7s0,3-0.4,4.3c-0.4,1.3-1.1,2.5-2,3.6c-0.9,1-1.9,1.9-3,2.6
		c-1.1,0.7-2.4,1.1-3.8,1.4c-1.4,0.3-2.7,0.2-4.1-0.1c-1.4-0.3-2.7-0.9-4-1.9c-1.3-0.9-2.4-2.2-3.4-3.9c-0.4-0.6-0.6-1.2-0.8-1.7
		c-0.2-0.6-0.3-1.1-0.4-1.5c-0.1-0.3-0.1-0.6-0.2-0.9c-0.1-0.3-0.2-0.5-0.3-0.7l3.1-1.8l0.2,0.3c-0.5,0.4-0.9,0.9-1.1,1.4
		c-0.2,0.5-0.3,1-0.3,1.5c0,0.5,0.1,1,0.3,1.5C18.6,215.1,18.8,215.5,19.1,216z"/>
	<path d="M29.5,191.5l-0.1-0.1l0.3-0.1l1.6,4.2l-0.3,0.1l-0.1-0.1c-0.1-0.1-0.2-0.2-0.3-0.3c-0.2-0.1-0.3-0.1-0.5-0.2s-0.4,0-0.6,0
		c-0.2,0-0.4,0.1-0.5,0.1l-16,5.9c-0.1,0.1-0.3,0.1-0.5,0.2c-0.2,0.1-0.3,0.2-0.4,0.4c-0.1,0.1-0.2,0.3-0.3,0.5
		c-0.1,0.2-0.1,0.3,0,0.5l0.1,0.1l-0.3,0.1l-1.9-5.2c-0.7-2-0.9-3.7-0.5-5.1c0.4-1.4,1.3-2.3,2.9-2.9c0.8-0.3,1.5-0.4,2.1-0.4
		c0.7,0,1.3,0.2,1.8,0.5c0.6,0.3,1.1,0.6,1.5,1.1s0.9,1,1.2,1.6l2.5-3.4c0.6-0.8,1.2-1.6,1.8-2.5c0.6-0.8,1.2-1.6,1.8-2.5
		c0.1-0.2,0.3-0.4,0.5-0.7c0.2-0.3,0.3-0.5,0.4-0.8c0.1-0.3,0.2-0.5,0.2-0.8c0-0.3,0-0.5-0.1-0.7L26,181l0.5,1.3
		c0.3,0.8,0.3,1.5,0.1,2.2s-0.5,1.2-0.9,1.8c-1,1.4-2,2.8-3,4.2c-1,1.4-2,2.8-3,4.1c0.1,0.2,0.1,0.5,0.2,0.7
		c0.1,0.3,0.1,0.5,0.2,0.7l8.2-3c0.2-0.1,0.3-0.1,0.5-0.3c0.2-0.1,0.3-0.2,0.5-0.4c0.1-0.1,0.2-0.3,0.3-0.5
		C29.6,191.8,29.6,191.6,29.5,191.5z M11.4,199.2l7.6-2.8l-0.1-0.2c0-0.2-0.1-0.4-0.2-0.8c-0.1-0.4-0.3-0.8-0.5-1.3
		c-0.2-0.4-0.4-0.8-0.7-1.3c-0.3-0.4-0.7-0.8-1.1-1.1c-0.5-0.3-1-0.5-1.6-0.6c-0.6-0.1-1.3,0-2,0.3s-1.3,0.7-1.7,1.1s-0.6,1-0.7,1.6
		c-0.1,0.6-0.1,1.3,0.1,2.1c0.2,0.8,0.4,1.6,0.7,2.4L11.4,199.2z"/>
	<path d="M1.7,169.3c-0.3-1.6-0.2-3.2,0.1-4.6c0.4-1.4,1-2.6,1.8-3.7c0.8-1.1,1.9-2,3.1-2.7c1.2-0.7,2.5-1.2,3.9-1.4
		c1.6-0.3,3.1-0.2,4.5,0.2c1.4,0.4,2.7,1,3.8,1.8c1.1,0.9,2,1.9,2.8,3.2c0.8,1.2,1.3,2.6,1.5,4.1c0.3,1.6,0.2,3.1-0.2,4.5
		s-1,2.6-1.8,3.7c-0.8,1.1-1.8,1.9-3,2.6s-2.5,1.1-3.8,1.4c-1.3,0.2-2.7,0.2-4.1-0.1c-1.4-0.3-2.7-0.8-3.9-1.6
		c-1.2-0.8-2.2-1.8-3.1-3S1.9,171,1.7,169.3z M22,166c-0.3-1.4-0.8-2.6-1.6-3.6c-0.8-1-1.6-1.7-2.6-2.3c-1-0.6-2.1-0.9-3.2-1.1
		c-1.1-0.2-2.2-0.2-3.3,0c-1.2,0.2-2.3,0.6-3.4,1.2c-1.1,0.6-2.1,1.4-2.9,2.3c-0.8,0.9-1.5,2-1.9,3.2c-0.4,1.2-0.5,2.5-0.3,3.8
		c0.2,1.3,0.7,2.4,1.4,3.4c0.7,0.9,1.6,1.7,2.7,2.3c1,0.6,2.1,1,3.3,1.2c1.2,0.2,2.3,0.2,3.4,0c1.2-0.2,2.3-0.6,3.4-1.2
		c1.1-0.6,2.1-1.4,2.9-2.4c0.8-0.9,1.4-2,1.9-3.1C22.1,168.4,22.2,167.2,22,166z"/>
	<path d="M20.8,149.5l0-0.2c0-0.2-0.1-0.3-0.2-0.5c-0.1-0.1-0.3-0.2-0.4-0.3c-0.2-0.1-0.3-0.2-0.5-0.2c-0.2-0.1-0.4-0.1-0.5-0.1
		L2,147.9c-0.1,0-0.3,0-0.5,0.1s-0.4,0.1-0.5,0.2c-0.2,0.1-0.3,0.2-0.4,0.3s-0.2,0.3-0.2,0.4l0,0.2l-0.3,0l0.1-4.6l0.3,0l0,0.2
		c0,0.2,0.1,0.3,0.2,0.5c0.1,0.1,0.3,0.2,0.4,0.3c0.2,0.1,0.3,0.2,0.5,0.2s0.4,0.1,0.5,0.1l17.9,0.3l0.1-7c0-0.4-0.1-0.8-0.3-1.1
		s-0.4-0.6-0.7-0.8c-0.3-0.2-0.6-0.4-0.9-0.5c-0.3-0.1-0.6-0.2-0.9-0.2l0-0.3l4,0.1l-0.2,13.1L20.8,149.5z"/>
	<path d="M21.5,131.5l0-0.2c0-0.2,0-0.3-0.1-0.5c-0.1-0.1-0.2-0.3-0.4-0.4c-0.2-0.1-0.3-0.2-0.5-0.3c-0.2-0.1-0.4-0.1-0.5-0.2
		l-16.9-2.7c-0.1,0-0.3,0-0.5,0c-0.2,0-0.4,0.1-0.6,0.1c-0.2,0.1-0.3,0.2-0.5,0.3c-0.1,0.1-0.2,0.2-0.2,0.4l0,0.2L1,128.2l0.7-4.5
		l0.3,0.1l0,0.2c0,0.2,0,0.3,0.1,0.5c0.1,0.1,0.2,0.3,0.4,0.4c0.2,0.1,0.3,0.2,0.5,0.3c0.2,0.1,0.3,0.1,0.5,0.2l17.7,2.9l1.1-6.9
		c0.1-0.4,0-0.8-0.1-1.1c-0.1-0.3-0.3-0.6-0.6-0.9s-0.5-0.4-0.8-0.6c-0.3-0.1-0.6-0.2-0.9-0.3l0.1-0.3l4,0.6l-2.1,13L21.5,131.5z"/>
	<path d="M28.2,102.7l0.1-0.1c0.1-0.1,0.1-0.3,0-0.5c-0.1-0.2-0.2-0.3-0.3-0.5s-0.3-0.3-0.4-0.4c-0.2-0.1-0.3-0.2-0.5-0.3L11.4,94
		c-0.1-0.1-0.3-0.1-0.5-0.1c-0.2,0-0.4-0.1-0.6,0c-0.2,0-0.4,0-0.5,0.1c-0.2,0.1-0.3,0.2-0.3,0.3l-0.1,0.1l-0.3-0.1l2.5-5.6
		c0.7-1.5,1.6-2.8,2.6-3.8c1.1-1,2.3-1.7,3.5-2.2c1.3-0.4,2.6-0.6,4-0.6c1.4,0.1,2.7,0.4,4,1c1.2,0.5,2.3,1.3,3.2,2.2
		c1,0.9,1.7,2,2.2,3.3s0.8,2.7,0.7,4.2s-0.4,3.1-1.2,4.8l-2.3,5.3L28.2,102.7z M25.4,85.2c-1.2-0.6-2.5-0.9-3.8-0.9
		c-1.3,0-2.6,0.2-3.8,0.6c-1.2,0.4-2.3,1.1-3.3,2c-1,0.9-1.8,2-2.3,3.3l-0.7,1.5l17.3,7.7l0.7-1.6c0.5-1.1,0.8-2.2,0.9-3.4
		c0.2-1.2,0.1-2.4-0.2-3.6c-0.3-1.2-0.8-2.2-1.6-3.2C27.8,86.6,26.7,85.8,25.4,85.2z"/>
	<path d="M26.1,61.9c1-1.4,2.1-2.4,3.3-3.2c1.2-0.7,2.5-1.2,3.9-1.4c1.3-0.2,2.7-0.1,4.1,0.2c1.4,0.3,2.6,0.9,3.8,1.7
		c1.3,0.9,2.3,2,3.1,3.3s1.2,2.6,1.4,4c0.2,1.4,0.1,2.8-0.2,4.2s-0.9,2.8-1.8,4c-0.9,1.3-2,2.4-3.3,3.1c-1.2,0.7-2.5,1.2-3.8,1.4
		c-1.3,0.2-2.7,0.1-4-0.2c-1.3-0.3-2.6-0.9-3.7-1.7c-1.1-0.8-2.1-1.8-2.9-2.9c-0.8-1.2-1.4-2.4-1.7-3.8c-0.3-1.4-0.3-2.8-0.1-4.3
		C24.5,64.8,25.1,63.3,26.1,61.9z M43,73.7c0.8-1.2,1.2-2.4,1.4-3.6c0.1-1.2,0-2.4-0.3-3.5c-0.3-1.1-0.8-2.1-1.5-3
		c-0.7-0.9-1.5-1.7-2.3-2.3c-1-0.7-2.1-1.2-3.3-1.5s-2.5-0.5-3.7-0.4c-1.2,0.1-2.4,0.4-3.6,1s-2.1,1.4-2.9,2.5
		c-0.8,1.1-1.2,2.2-1.3,3.4c-0.1,1.2,0,2.4,0.3,3.5c0.3,1.1,0.8,2.2,1.6,3.1c0.7,1,1.5,1.8,2.4,2.4c1,0.7,2.1,1.2,3.3,1.5
		c1.2,0.3,2.5,0.4,3.7,0.3c1.2-0.1,2.4-0.4,3.5-1C41.4,75.6,42.3,74.8,43,73.7z"/>
	<path d="M54.7,31.6c-0.3,0.3-0.4,0.7-0.4,1.1c0,0.5,0.2,0.9,0.4,1.3l9,17.9l-14.5-8l7.2,14.9L39,49c-0.4-0.2-0.8-0.4-1.2-0.5
		c-0.5-0.1-0.8,0-1.1,0.2l-0.2-0.2l3.3-3.1l0.2,0.2c-0.2,0.2-0.3,0.4-0.3,0.7c0,0.3,0.2,0.6,0.4,0.8c0.1,0.1,0.2,0.2,0.3,0.3l12.4,7
		l-7.1-14.9l14.3,8l-6.3-12.7c0,0-0.1-0.1-0.2-0.2c-0.1-0.1-0.1-0.2-0.2-0.3c-0.2-0.2-0.4-0.3-0.7-0.3c-0.2,0-0.4,0-0.6,0.2
		l-0.2-0.2l2.5-2.4L54.7,31.6z"/>
	<path d="M75.7,42.1l0.1-0.1l0.2,0.3l-3,1.9l-0.2-0.3l0.1-0.1c0.1-0.1,0.2-0.2,0.3-0.4c0.1-0.2,0.1-0.4,0-0.6c0-0.2-0.1-0.4-0.1-0.6
		c-0.1-0.2-0.1-0.4-0.2-0.5l-9-14.5c-0.1-0.1-0.2-0.3-0.3-0.4c-0.1-0.1-0.3-0.3-0.4-0.4c-0.2-0.1-0.3-0.2-0.5-0.2
		c-0.2,0-0.4,0-0.6,0.1l-0.1,0.1l-0.2-0.3l2.7-1.7L84,34l-8.6-13.9c-0.1-0.1-0.2-0.3-0.3-0.4c-0.1-0.1-0.3-0.2-0.5-0.3
		c-0.2-0.1-0.3-0.2-0.5-0.2c-0.2,0-0.3,0-0.5,0.1l-0.1,0.1l-0.2-0.3l3-1.9l0.2,0.3l-0.1,0.1c-0.1,0.1-0.2,0.2-0.3,0.4
		c0,0.2-0.1,0.3-0.1,0.5c0,0.2,0,0.4,0.1,0.6c0.1,0.2,0.1,0.3,0.2,0.5l10.1,16.3l-1.7,1l-19.5-9.5l8.6,13.8c0.1,0.1,0.2,0.3,0.3,0.4
		c0.1,0.2,0.3,0.3,0.5,0.4c0.2,0.1,0.3,0.2,0.5,0.2C75.4,42.2,75.5,42.2,75.7,42.1z"/>
</g>
</svg>
